<?xml version="1.0" encoding="UTF-8" standalone="no"?>
<!-- Created with Inkscape (http://www.inkscape.org/) -->

<svg
   width="450"
   height="200"
   viewBox="0 0 119.0625 52.916666"
   version="1.1"
   id="svg1"
   xml:space="preserve"
   sodipodi:docname="book-preview.svg"
   inkscape:version="1.3.2 (091e20e, 2023-11-25, custom)"
   xmlns:inkscape="http://www.inkscape.org/namespaces/inkscape"
   xmlns:sodipodi="http://sodipodi.sourceforge.net/DTD/sodipodi-0.dtd"
   xmlns="http://www.w3.org/2000/svg"
   xmlns:svg="http://www.w3.org/2000/svg"><sodipodi:namedview
     id="namedview1"
     pagecolor="#ffffff"
     bordercolor="#000000"
     borderopacity="0.25"
     inkscape:showpageshadow="2"
     inkscape:pageopacity="0.0"
     inkscape:pagecheckerboard="0"
     inkscape:deskcolor="#d1d1d1"
     inkscape:document-units="mm"
     inkscape:zoom="2.7822222"
     inkscape:cx="225"
     inkscape:cy="100.09984"
     inkscape:window-width="1920"
     inkscape:window-height="1009"
     inkscape:window-x="-8"
     inkscape:window-y="-8"
     inkscape:window-maximized="1"
     inkscape:current-layer="layer1" /><defs
     id="defs1" /><g
     inkscape:label="Layer 1"
     inkscape:groupmode="layer"
     id="layer1"><g
       id="g7"
       transform="matrix(0.06614583,0,0,0.06614583,-6.6145825,-39.710022)"
       style="display:inline;opacity:0.136364"><g
         id="BACKGROUND-0">
	<rect
   style="fill:#ffffff"
   width="2000"
   height="2000"
   id="rect1"
   x="0"
   y="0" />
</g><g
         id="OBJECTS-5">
	<g
   id="g154">
		<path
   style="fill:#b586ff"
   d="m 1853.118,0 h -58.601 c -5.717,2.719 -11.436,5.433 -17.233,7.967 -7.43,3.248 -13.631,7.583 -9.465,16.52 4.304,9.232 12.346,8.283 20.059,4.49 10.189,-5.01 20.167,-10.344 31.384,-12.952 18.669,-4.34 30.219,6.491 27.34,25.548 -1.992,13.184 -6.804,25.302 -12.565,37.155 -3.19,6.563 -2.103,12.504 4.343,15.88 6.829,3.576 12.72,1.155 16.234,-5.764 5.746,-11.314 10.548,-23.007 13.439,-35.425 5.337,-22.928 0.588,-40.126 -14.935,-53.419 z"
   id="path1-7" />
		<path
   style="fill:#f2e7ae"
   d="m 738.824,0 c -6.922,3.228 -13.844,6.456 -20.803,9.601 -4.834,2.184 -7.431,5.649 -7.256,11.017 0.287,8.844 9.088,13.414 18.627,9.302 10.401,-4.484 20.018,-10.703 31.257,-13.334 21.885,-5.122 33.221,5.624 29.369,27.973 -2.126,12.33 -7.188,23.555 -12.464,34.75 -2.742,5.817 -2.047,11.331 3.803,14.886 5.592,3.396 11.143,2.566 15.18,-2.683 C 818.889,62.446 818.415,26.308 796.04,0 Z"
   id="path2-8" />
		<path
   style="fill:#ffe393"
   d="m 1297.446,0 h -23.529 c 0.442,6.966 0.886,13.932 1.318,20.899 0.07,1.126 0.054,2.257 0.078,3.385 -1.067,-0.309 -2.201,-0.478 -3.192,-0.948 -8.067,-3.833 -16.031,-7.895 -24.192,-11.515 -3.662,-1.625 -2.344,-2.301 -0.183,-4.102 3.515,-2.931 7.808,-4.849 11.362,-7.718 h -40.928 c -12.099,9.481 -10.668,17.807 4.535,25.229 18.259,8.914 36.616,17.629 54.975,26.338 5.582,2.648 11.518,4.439 17.077,0.344 5.729,-4.221 5.508,-10.562 5.03,-16.918 -0.879,-11.658 -1.594,-23.328 -2.351,-34.994 z"
   id="path3" />
		<path
   style="fill:#aaf2a7"
   d="m 240.939,0 h -23.5 c 0.544,7.144 1.064,14.29 1.73,21.422 0.261,2.789 -0.486,3.014 -2.796,1.909 -8.341,-3.991 -16.697,-7.953 -25.129,-11.747 -3.36,-1.512 -2.087,-2.274 -0.058,-3.943 3.542,-2.912 7.899,-4.76 11.457,-7.642 h -40.725 c -0.291,0.217 -0.577,0.439 -0.869,0.654 -9.664,7.108 -9.209,17.01 1.516,22.334 20.223,10.038 40.558,19.868 61.057,29.329 11.539,5.326 20.407,-0.737 19.887,-13.451 C 242.98,25.897 241.873,12.952 240.939,0 Z"
   id="path4" />
		<path
   style="fill:#50a7f2"
   d="m 1541.963,0 c -3.837,12.477 -7.519,25.008 -11.758,37.347 -2.632,7.662 -3.253,14.887 5.274,18.005 9.122,3.336 14.637,-2.017 17.413,-10.73 4.748,-14.899 9.636,-29.754 14.483,-44.622 z"
   id="path5" />
		<path
   style="fill:#f2e7ae"
   d="m 486.331,0 c -4.37,13.276 -8.707,26.563 -13.163,39.81 -2.337,6.948 -0.706,12.681 6.066,15.355 6.664,2.632 13.138,0.702 15.661,-6.486 5.654,-16.11 10.721,-32.425 15.961,-48.68 h -24.525 z"
   id="path6" />
		<path
   style="fill:#50a7f2"
   d="M 47.86,689.502 C 32.66,681.979 16.825,676.646 0,674.534 v 23.445 c 13.428,1.356 25.826,6.042 37.73,12.277 6.716,3.518 13.251,4.18 17.175,-3.443 4.054,-7.876 0.563,-13.545 -7.045,-17.311 z"
   id="path7" />
		<path
   style="fill:#aaf2a7"
   d="M 48.25,1746.305 C 32.938,1738.657 16.979,1733.222 0,1731.069 v 23.372 c 13.669,1.022 26.053,6.251 38.173,12.302 6.713,3.352 13.089,3.273 16.765,-3.843 3.816,-7.39 0.609,-12.951 -6.688,-16.595 z"
   id="path8" />
		<path
   style="fill:#aaf2a7"
   d="m 2000,455.12 c -4.937,14.917 -9.738,29.88 -14.676,44.797 -2.112,6.382 -2.454,12.4 3.627,16.699 3.87,2.736 7.559,2.606 11.049,0.997 z"
   id="path9" />
		<path
   style="fill:#f2e7ae"
   d="m 2000,1512.556 c -4.603,13.97 -9.162,27.955 -13.795,41.916 -2.057,6.198 -3.898,12.319 1.992,17.507 4.073,3.588 7.974,3.178 11.802,1.548 v -60.971 z"
   id="path10" />
		<path
   style="fill:#e8847a"
   d="m 702.57,2000 c 0.905,-1.304 1.822,-2.6 2.801,-3.847 4.491,-5.721 4.825,-11.581 -0.631,-16.502 -5.385,-4.857 -11.92,-4.514 -16.485,0.831 -5.196,6.084 -9.557,12.882 -14.107,19.517 h 28.422 z"
   id="path11" />
		<path
   style="fill:#aaf2a7"
   d="m 1758.968,2000 c 0.956,-1.464 1.919,-2.924 2.92,-4.357 3.969,-5.681 4.356,-11.476 -0.968,-16.191 -5.314,-4.706 -11.687,-4.093 -16.074,1.061 -5.189,6.095 -9.581,12.868 -14.153,19.487 z"
   id="path12" />
		<path
   style="fill:#aaf2a7"
   d="m 0,1244.905 v 46.361 c 4.635,-7.068 7.554,-15.048 11.253,-22.597 7.025,-14.34 3.355,-21.916 -11.253,-23.764 z"
   id="path13" />
		<path
   style="fill:#e8847a"
   d="m 0,189.114 v 45.908 C 5.232,227.619 7.994,218.896 11.96,210.842 18.388,197.79 13.573,189.589 0,189.114 Z"
   id="path14" />
		<path
   style="fill:#aaf2a7"
   d="M 16.051,1001.421 C 13.584,993.629 6.403,992.684 0,990.67 v 24.559 c 4.637,1.573 9.19,2.005 13.426,-2.035 3.503,-3.34 3.897,-7.755 2.625,-11.773 z"
   id="path15" />
		<path
   style="fill:#aaf2a7"
   d="m 1348.972,0 c 0.01,4.53 0.993,8.678 6.162,11.081 4.304,2.001 8.606,1.771 12.288,-1.379 3.193,-2.732 4.494,-6.03 4.178,-9.703 h -22.628 z"
   id="path16" />
		<path
   style="fill:#f2c6b6"
   d="m 292.778,0 c -0.301,3.699 0.845,7.042 4.257,9.711 3.803,2.975 8.107,3.291 12.362,1.033 4.677,-2.482 6.01,-6.362 6.022,-10.744 z"
   id="path17" />
		<path
   style="fill:#b586ff"
   d="m 865.477,2000 c -1.666,-1.95 -4.373,-2.408 -7.056,-2.583 -3.274,-0.215 -6.327,0.309 -8.348,2.583 z"
   id="path18" />
		<path
   style="fill:#50a7f2"
   d="m 1922.006,2000 c -1.603,-1.813 -4.179,-2.283 -6.67,-2.555 -3.322,-0.362 -6.22,0.409 -8.343,2.555 z"
   id="path19" />
		<path
   style="fill:#b586ff"
   d="m 1801.832,836.884 c -2.745,-1.027 -8.13,-2.762 -13.287,-5.018 -24.262,-10.612 -48.423,-21.456 -72.705,-32.021 -8.104,-3.526 -10.214,-9.622 -7.066,-17.038 12.113,-28.531 24.549,-56.926 37.104,-85.266 2.903,-6.553 8.843,-8.503 15.165,-5.818 28.861,12.256 57.629,24.736 86.283,37.467 6.425,2.854 8.412,8.866 5.69,15.257 -12.275,28.814 -24.81,57.518 -37.375,86.207 -2.01,4.587 -5.851,6.836 -13.809,6.23 z m -37.741,-116.615 c -0.53,0.807 -1.23,1.603 -1.634,2.527 -8.124,18.58 -16.128,37.213 -24.407,55.722 -1.217,2.72 -0.182,3.346 1.814,4.213 18.298,7.945 36.599,15.886 54.858,23.921 2.214,0.974 3.527,1.531 4.783,-1.414 7.881,-18.477 15.982,-36.859 23.94,-55.304 0.43,-0.996 2.094,-2.526 0.231,-3.357 -19.689,-8.778 -39.434,-17.433 -59.585,-26.308 z"
   id="path20" />
		<path
   style="fill:#f2e7ae"
   d="m 797.853,1798.349 c -1.589,4.002 -3.749,9.918 -6.258,15.683 -10.057,23.113 -20.374,46.114 -30.277,69.293 -4.212,9.859 -10.636,12.336 -20.283,8.112 -27.237,-11.926 -54.557,-23.662 -81.77,-35.641 -7.515,-3.308 -9.96,-9.381 -6.724,-16.919 12.119,-28.23 24.404,-56.389 36.766,-84.514 3.245,-7.383 9.579,-8.928 16.326,-6.065 28.704,12.184 57.259,24.721 85.826,37.223 4.49,1.963 6.335,5.843 6.394,12.828 z m -29.574,5.179 c -0.721,-0.531 -1.434,-1.286 -2.31,-1.671 -18.575,-8.155 -37.197,-16.205 -55.728,-24.46 -2.778,-1.237 -3.302,0.133 -4.157,2.089 -8.065,18.452 -16.134,36.904 -24.333,55.297 -1.05,2.355 -0.715,3.207 1.672,4.235 18.319,7.889 36.591,15.887 54.813,23.996 2.944,1.31 4.032,0.607 5.232,-2.252 4.528,-10.783 9.388,-21.425 14.061,-32.148 3.558,-8.167 7.022,-16.378 10.75,-25.086 z"
   id="path21" />
		<path
   style="fill:#ffe393"
   d="m 1759.784,1747.484 c 2.288,0.845 7.07,2.346 11.635,4.343 24.862,10.875 49.646,21.932 74.514,32.794 7.808,3.41 10.095,9.315 6.984,16.642 -12.122,28.547 -24.537,56.972 -37.064,85.345 -2.759,6.248 -8.492,8.765 -14.637,6.17 -29.187,-12.324 -58.247,-24.955 -87.19,-37.842 -6.23,-2.774 -7.963,-8.738 -5.311,-14.947 12.306,-28.811 24.818,-57.534 37.387,-86.232 2.01,-4.587 5.887,-6.814 13.682,-6.273 z m 5.061,29.344 c -2.295,-0.624 -2.29,1.517 -2.768,2.607 -8.018,18.252 -15.85,36.588 -23.967,54.796 -1.332,2.987 -0.423,3.919 2.078,4.997 18.299,7.89 36.59,15.8 54.807,23.874 2.803,1.242 3.787,0.589 4.914,-2.039 7.792,-18.171 15.65,-36.314 23.725,-54.361 1.359,-3.038 0.79,-4.084 -2.078,-5.3 -11.063,-4.693 -22.011,-9.655 -33.029,-14.453 -7.87,-3.426 -15.783,-6.75 -23.682,-10.121 z"
   id="path22" />
		<path
   style="fill:#b586ff"
   d="m 652.248,785.716 c 0.751,-2.125 2.042,-6.636 3.904,-10.897 11.003,-25.179 22.19,-50.278 33.201,-75.454 3.484,-7.966 9.205,-10.338 16.995,-6.994 27.953,11.996 55.852,24.118 83.723,36.302 7.585,3.316 9.284,9.634 6.293,16.643 -12.183,28.549 -24.634,56.985 -37.203,85.367 -2.871,6.483 -8.79,8.041 -14.828,5.474 -28.897,-12.285 -57.661,-24.884 -86.408,-37.518 -4.273,-1.877 -6.023,-5.735 -5.677,-12.923 z m 115.853,-37.637 c 0.536,-2.281 -1.497,-2.32 -2.621,-2.816 -18.297,-8.077 -36.667,-15.99 -54.913,-24.179 -2.805,-1.259 -3.865,-0.916 -5.025,1.81 -7.828,18.404 -15.743,36.771 -23.742,55.101 -1.027,2.353 -1.096,3.569 1.611,4.731 18.374,7.886 36.716,15.847 54.967,24.013 3.179,1.422 4.027,0.453 5.211,-2.308 7.692,-17.938 15.567,-35.798 23.38,-53.685 0.391,-0.894 0.764,-1.797 1.132,-2.667 z"
   id="path23" />
		<path
   style="fill:#aaf2a7"
   d="m 196.61,1345.967 c -29.927,-0.032 -54.031,-24.187 -53.965,-54.078 0.066,-29.622 24.273,-53.813 53.839,-53.804 29.803,0.01 53.988,24.318 53.904,54.18 -0.084,29.734 -24.117,53.734 -53.778,53.702 z m 0.165,-83.671 c -16.606,-0.068 -30.344,13.371 -30.445,29.783 -0.098,16.016 13.549,29.683 29.865,29.908 16.32,0.224 30.302,-13.457 30.509,-29.854 0.201,-15.911 -13.701,-29.77 -29.929,-29.837 z"
   id="path24" />
		<path
   style="fill:#75e2ff"
   d="m 1198.968,235.894 c 0.097,-29.955 24.311,-53.853 54.396,-53.685 29.328,0.164 53.308,24.385 53.349,53.884 0.041,29.628 -24.084,53.796 -53.758,53.852 -29.893,0.058 -54.083,-24.162 -53.987,-54.051 z m 83.802,0.68 c 0.33,-16.383 -13.224,-30.386 -29.684,-30.667 -16.033,-0.274 -29.866,13.204 -30.302,29.525 -0.438,16.416 12.89,30.21 29.643,30.68 16.021,0.45 30.014,-13.172 30.343,-29.538 z"
   id="path25" />
		<path
   style="fill:#e8847a"
   d="m 250.392,235.9 c -0.011,29.652 -24.417,54.152 -53.69,53.897 -29.954,-0.26 -53.885,-24.156 -53.832,-53.753 0.053,-29.934 24.288,-54 54.278,-53.901 29.414,0.097 53.256,24.169 53.244,53.757 z m -53.761,30.027 c 16.344,0.08 30.046,-13.375 30.217,-29.674 0.171,-16.34 -13.51,-30.207 -30.005,-30.411 -16.432,-0.203 -30.339,13.407 -30.513,29.861 -0.17,16.126 13.884,30.144 30.301,30.224 z"
   id="path26" />
		<path
   style="fill:#50a7f2"
   d="m 1306.374,1292.623 c -0.497,30.522 -24.563,53.705 -55.175,53.15 -28.907,-0.524 -52.272,-24.959 -51.698,-54.065 0.604,-30.67 24.188,-53.631 54.561,-53.12 29.304,0.493 52.788,24.751 52.312,54.035 z m -23.822,-0.349 c 0.053,-16.653 -13.006,-29.939 -29.549,-30.064 -16.854,-0.127 -30.288,13.096 -30.307,29.832 -0.019,16.755 13.339,30.111 30.115,30.11 16.547,-10e-4 29.689,-13.202 29.741,-29.878 z"
   id="path27" />
		<path
   style="fill:#50a7f2"
   d="m 1451.808,283.186 c -15.522,0.173 -21.356,-8.468 -15.462,-21.104 9.278,-19.89 18.753,-39.692 28.409,-59.401 5.883,-12.008 16.213,-12.538 23.779,-1.523 11.996,17.466 24.015,34.916 35.952,52.422 3.547,5.202 6.704,10.719 3.458,17.204 -3.234,6.462 -9.419,7.224 -15.807,7.694 -20.652,1.518 -41.29,3.21 -60.329,4.708 z m 14.978,-24.804 c 9.082,-0.71 18.166,-1.396 27.244,-2.15 1.758,-0.146 3.749,-0.227 1.83,-2.957 -5.235,-7.451 -10.366,-14.974 -15.493,-22.5 -1.337,-1.963 -2.048,-1.986 -3.119,0.313 -3.84,8.243 -7.87,16.397 -11.818,24.59 -0.719,1.49 -1.831,3.215 1.356,2.704 z"
   id="path28" />
		<path
   style="fill:#50a7f2"
   d="m 394.866,283.165 c -14.528,0.166 -20.263,-8.74 -14.454,-21.036 9.37,-19.834 18.767,-39.656 28.273,-59.425 5.647,-11.745 16.579,-12.387 23.939,-1.615 11.76,17.213 23.582,34.384 35.401,51.556 3.781,5.494 7.314,11.249 3.999,18.029 -3.348,6.848 -10.144,7.268 -16.789,7.763 -20.464,1.527 -40.918,3.195 -60.369,4.728 z m 17.061,-24.85 c 8.207,-0.578 17.119,-1.157 26.021,-1.876 1.645,-0.133 4.419,0.134 2.129,-3.129 -5.405,-7.701 -10.722,-15.466 -15.956,-23.285 -1.525,-2.277 -2.108,-1.426 -2.951,0.402 -3.924,8.503 -7.849,17.006 -11.897,25.449 -1.198,2.496 -0.621,3.193 2.654,2.439 z"
   id="path29" />
		<path
   style="fill:#f2c6b6"
   d="m 393.412,1339.439 c -11.755,0.288 -18.412,-8.228 -13.627,-18.927 9.67,-21.623 19.902,-43.009 30.499,-64.195 4.397,-8.79 14.746,-9.469 20.461,-1.418 13.75,19.372 27.198,38.973 40.193,58.858 6.018,9.208 1.039,18.956 -9.821,19.992 -22.544,2.151 -45.134,3.825 -67.705,5.69 z m 16.032,-24.695 c 10.429,-0.865 20.128,-1.759 29.842,-2.42 2.724,-0.185 1.969,-1.211 1.049,-2.548 -5.431,-7.896 -10.917,-15.754 -16.283,-23.694 -1.119,-1.655 -1.659,-2.04 -2.629,0.055 -4.076,8.804 -8.235,17.569 -12.357,26.352 -0.541,1.154 -1.583,2.607 0.378,2.255 z"
   id="path30" />
		<path
   style="fill:#f2e7ae"
   d="m 243.6,1093.11 c 0.123,15.448 -8.486,21.122 -20.923,15.276 -19.859,-9.335 -39.632,-18.855 -59.365,-28.454 -11.57,-5.628 -12.274,-16.252 -1.721,-23.513 17.846,-12.28 35.631,-24.651 53.588,-36.767 12.629,-8.52 22.619,-3.276 23.679,11.897 1.477,21.132 3.241,42.243 4.742,61.561 z m -24.774,-16.403 c -0.577,-8.128 -1.265,-17.204 -1.841,-26.288 -0.173,-2.728 -1.116,-3.001 -3.22,-1.52 -8.089,5.694 -16.214,11.336 -24.326,16.997 8.88,4.502 17.77,8.987 26.634,13.52 2.053,1.05 3.449,1.306 2.753,-2.709 z"
   id="path31" />
		<path
   style="fill:#f2c6b6"
   d="m 1455.906,1338.755 c -20.274,1.011 -25.923,-7.497 -18.482,-22.975 9.029,-18.779 18.043,-37.565 27.146,-56.307 5.953,-12.258 16.317,-13.184 24.023,-2.047 12.342,17.837 24.592,35.74 36.7,53.736 8.275,12.299 3.751,21.554 -11.059,22.827 -20.484,1.76 -40.982,3.356 -58.328,4.766 z m 10.042,-24.15 c 8.262,-0.502 16.518,-1.126 24.787,-1.464 6.032,-0.246 7.392,-1.692 3.161,-6.965 -4.862,-6.059 -8.918,-12.767 -13.28,-19.224 -1.188,-1.759 -1.911,-3.054 -3.327,0.01 -3.948,8.541 -8.201,16.94 -12.212,25.453 -0.283,0.6 -2.564,2.833 0.871,2.19 z"
   id="path32" />
		<path
   style="fill:#aaf2a7"
   d="m 1052.863,189.11 c 16.312,-0.181 21.973,8.204 16.013,20.98 -9.213,19.75 -18.608,39.419 -28.169,59.003 -6.046,12.384 -16.24,12.945 -24.001,1.627 -11.983,-17.474 -24.126,-34.84 -35.94,-52.428 -9.265,-13.794 -4.245,-23.308 12.35,-24.494 20.661,-1.476 41.301,-3.229 59.747,-4.688 z m -16.483,24.168 c -9.475,0.878 -16.899,1.745 -24.347,2.18 -3.703,0.216 -4.578,0.83 -2.151,4.167 5.058,6.954 9.997,14.007 14.659,21.229 2.234,3.461 2.928,2.055 4.125,-0.536 3.184,-6.894 6.246,-13.863 9.842,-20.541 2.873,-5.339 3.021,-7.994 -2.128,-6.499 z"
   id="path33" />
		<path
   style="fill:#ffe393"
   d="m 149.523,1492.007 c -0.18,-16.425 8.315,-22.077 21.274,-15.948 19.544,9.242 39.034,18.604 58.451,28.109 12.703,6.219 13.26,16.171 1.61,24.16 -17.064,11.701 -34.022,23.56 -51.19,35.106 -15.083,10.144 -24.13,5.538 -25.485,-12.528 -1.524,-20.319 -3.208,-40.624 -4.66,-58.899 z m 24.385,17.211 c 0.538,7.259 1.332,13.252 1.341,19.246 0.013,8.551 2.599,8.972 8.78,3.862 5.232,-4.326 11.098,-7.909 16.826,-11.602 2.997,-1.932 3.77,-2.956 -0.212,-4.682 -6.824,-2.957 -13.523,-6.228 -20.143,-9.624 -4.771,-2.447 -8.86,-4.563 -6.592,2.8 z"
   id="path34" />
		<path
   style="fill:#aaf2a7"
   d="m 1206.063,437.196 c -0.178,-18.088 7.801,-23.349 21.526,-16.853 19.389,9.176 38.747,18.418 58.079,27.714 11.61,5.582 12.441,16.728 1.882,23.961 -17.597,12.053 -35.151,24.171 -52.802,36.144 -13.32,9.036 -22.793,4.245 -24.005,-11.855 -1.553,-20.63 -3.259,-41.249 -4.68,-59.111 z m 24.391,15.686 c 0.668,8.081 1.575,14.744 1.668,21.419 0.09,6.511 1.673,6.917 6.633,3.045 6.923,-5.405 14.345,-10.171 21.553,-15.21 -7.934,-3.881 -15.978,-7.557 -23.763,-11.717 -4.958,-2.65 -7.73,-3.24 -6.091,2.463 z"
   id="path35" />
		<path
   style="fill:#aaf2a7"
   d="m 162.946,417.18 c 2.19,0.762 5.198,1.514 7.948,2.813 19.546,9.238 39.036,18.596 58.551,27.899 4.869,2.321 9.088,5.058 9.555,11.221 0.478,6.307 -3.187,9.799 -7.876,12.983 -17.257,11.72 -34.385,23.63 -51.642,35.35 -13.927,9.458 -22.739,5.941 -24.534,-10.549 -2.328,-21.388 -3.898,-42.87 -5.263,-64.345 -0.521,-8.198 3.276,-14.128 13.261,-15.372 z m 11.185,39.338 c 0.146,-10e-4 0.292,-0.002 0.438,-0.004 0.481,6.327 0.923,12.656 1.469,18.977 0.137,1.589 0.607,3.15 0.924,4.724 1.499,-0.776 3.086,-1.419 4.48,-2.351 6.343,-4.237 12.54,-8.701 18.978,-12.786 3.651,-2.316 4.743,-3.54 -0.281,-5.532 -6.017,-2.385 -11.727,-5.536 -17.615,-8.259 -2.743,-1.269 -5.592,-2.309 -8.394,-3.452 0.001,2.894 0.001,5.788 0.001,8.683 z"
   id="path36" />
		<path
   style="fill:#f2e7ae"
   d="m 1052.385,1245.3 c 16.686,-1.256 22.842,7.487 15.718,22.529 -9.054,19.119 -18.14,38.223 -27.32,57.281 -5.733,11.903 -16.395,12.648 -23.806,1.812 -11.962,-17.489 -23.983,-34.938 -35.917,-52.446 -9.024,-13.24 -4.927,-22.747 10.839,-24.26 20.135,-1.931 40.322,-3.302 60.486,-4.916 z m -12.883,24.184 c -9.548,0.777 -19.095,1.581 -28.647,2.313 -2.283,0.175 -3.334,0.526 -1.59,2.995 5.537,7.838 10.951,15.764 16.315,23.721 1.219,1.809 1.8,1.688 2.672,-0.185 4.103,-8.822 8.27,-17.615 12.406,-26.421 0.603,-1.285 1.786,-2.874 -1.156,-2.423 z"
   id="path37" />
		<path
   style="fill:#75e2ff"
   d="m 1206.042,1489.985 c -0.127,-14.008 8.113,-19.761 19.946,-14.349 20.413,9.337 40.692,18.979 60.856,28.842 10.625,5.197 11.169,16.145 1.394,22.912 -17.832,12.344 -35.703,24.635 -53.682,36.761 -13.035,8.792 -22.598,3.988 -23.818,-11.796 -1.634,-21.135 -3.187,-42.277 -4.696,-62.37 z m 23.952,15.407 c 0.807,9.539 1.621,19.077 2.411,28.617 0.136,1.647 -0.208,3.598 2.495,1.708 7.86,-5.496 15.778,-10.911 23.72,-16.287 1.788,-1.21 1.815,-1.875 -0.193,-2.811 -8.816,-4.107 -17.597,-8.29 -26.384,-12.459 -1.355,-0.644 -2.585,-1.213 -2.049,1.232 z"
   id="path38" />
		<path
   style="fill:#aaf2a7"
   d="m 1299.796,1094.321 c 0.353,13.13 -8.601,19.63 -19.694,14.497 -20.978,-9.708 -41.799,-19.765 -62.516,-30.018 -8.985,-4.446 -9.842,-14.936 -1.656,-20.707 18.919,-13.338 37.974,-26.497 57.274,-39.274 9.978,-6.605 19.83,-2.282 20.948,9.047 2.21,22.402 3.843,44.863 5.644,66.455 z m -24.575,-16.653 c -0.676,-8.427 -1.461,-17.834 -2.165,-27.248 -0.195,-2.599 -0.735,-3.496 -3.326,-1.669 -7.454,5.256 -15.036,10.332 -22.599,15.432 -1.776,1.198 -3.024,2.01 -0.036,3.394 8.698,4.027 17.307,8.245 25.963,12.362 1.299,0.619 2.949,1.619 2.163,-2.271 z"
   id="path39" />
		<path
   style="fill:#b586ff"
   d="m 1737.329,480.234 c -29.802,0.016 -49.172,-23.299 -45.934,-49.304 2.127,-17.079 8.203,-32.643 15.587,-47.862 3.32,-6.842 8.922,-9.835 16.045,-6.128 6.948,3.616 8.086,9.616 4.737,16.65 -7.127,14.968 -14.928,29.894 -12.127,47.289 1.979,12.289 10.825,17.712 23.202,15.445 13.641,-2.499 25.581,-9.202 38.026,-14.726 6.588,-2.924 12.709,-1.801 16.603,4.686 3.351,5.583 2.224,11.687 -3.245,14.598 -17.883,9.519 -35.942,18.993 -52.894,19.352 z"
   id="path40" />
		<path
   style="fill:#50a7f2"
   d="m 679.119,1536.33 c -28.268,0.057 -47.129,-23.605 -43.334,-51.336 2.228,-16.282 7.661,-31.448 15.253,-45.922 3.623,-6.907 9.268,-9.29 16.205,-5.798 7.031,3.54 7.516,9.854 4.389,16.324 -5.971,12.353 -11.705,24.734 -12.715,38.694 -1.359,18.769 9.283,27.764 27.478,23.55 11.077,-2.565 20.922,-7.907 31.021,-12.754 7.685,-3.689 15.701,-5.282 20.09,4.107 4.216,9.019 -1.941,13.302 -9.483,16.999 -16.283,7.981 -32.687,15.221 -48.904,16.136 z"
   id="path41" />
		<path
   style="fill:#f2c6b6"
   d="m 440.647,811.677 c -10e-4,28.183 -26.204,46.818 -56.63,40.549 -14.137,-2.912 -27.386,-8.066 -40.198,-14.505 -6.647,-3.341 -9.628,-8.721 -6.223,-15.68 3.46,-7.072 9.431,-8.186 16.487,-4.902 15.305,7.125 30.524,15.053 48.272,11.941 11.232,-1.97 16.67,-10.441 14.922,-21.766 -2.15,-13.93 -9.035,-26.014 -14.585,-38.655 -2.922,-6.655 -2.566,-13.363 4.661,-17.413 5.47,-3.065 10.57,-1.575 14.259,3.391 9.293,12.512 19.036,42.035 19.035,57.04 z"
   id="path42" />
		<path
   style="fill:#f2c6b6"
   d="m 1497.017,809.257 c 0,27.387 -22.485,46.4 -48.1,44.051 -17.715,-1.625 -33.799,-7.784 -49.388,-15.683 -6.625,-3.357 -9.291,-8.967 -5.741,-15.816 3.554,-6.856 9.64,-7.677 16.279,-4.487 13.536,6.503 27.158,12.79 42.598,12.718 15.456,-0.072 23.008,-9.806 20.134,-25.051 -2.231,-11.833 -7.337,-22.452 -12.817,-32.991 -4.032,-7.754 -5.816,-15.953 3.708,-20.588 9.339,-4.545 13.527,2.145 17.214,9.794 7.799,16.18 15.124,32.413 16.113,48.053 z"
   id="path43" />
		<path
   style="fill:#50a7f2"
   d="m 1497.128,1865.078 c -0.021,28.697 -23.523,47.611 -50.941,43.991 -16.448,-2.171 -31.849,-7.397 -46.417,-15.233 -6.762,-3.637 -9.76,-9.037 -5.798,-16.09 3.861,-6.873 9.964,-7.56 16.846,-4.093 14.44,7.274 29.115,14.137 45.913,12.023 12.886,-1.622 18.824,-10.606 16.467,-23.283 -2.412,-12.974 -8.224,-24.544 -14.029,-36.199 -5.266,-10.573 0.051,-20.427 10.313,-20.024 3.583,0.141 6.702,1.617 8.19,4.566 9.151,18.136 18.88,36.124 19.456,54.342 z"
   id="path44" />
		<path
   style="fill:#f2e7ae"
   d="m 1735.029,1536.451 c -29.501,0.105 -48.141,-25.858 -42.392,-56.309 2.636,-13.961 7.645,-27.096 13.886,-39.812 3.515,-7.16 8.887,-10.922 16.487,-7.107 7.461,3.746 7.291,10.393 4.03,17.172 -5.723,11.898 -11.213,23.935 -12.226,37.289 -1.486,19.577 9.487,28.526 28.425,24.028 10.907,-2.591 20.61,-7.839 30.55,-12.634 7.625,-3.679 15.399,-4.974 19.746,3.991 4.384,9.042 -1.886,13.414 -9.377,17.07 -16.279,7.943 -32.684,15.244 -49.129,16.312 z"
   id="path45" />
		<path
   style="fill:#75e2ff"
   d="m 1869.778,1096.422 c -0.995,16.043 -7.158,33.719 -16.387,50.332 -3.277,5.898 -9.105,7.632 -15.118,4.175 -6.143,-3.532 -7.378,-9.216 -4.345,-15.596 5.59,-11.759 10.599,-23.641 12.599,-36.693 3.019,-19.7 -8.41,-30.644 -27.65,-26.186 -11.065,2.564 -20.982,7.78 -31.022,12.77 -7.847,3.9 -15.729,4.882 -20.016,-4.37 -4.087,-8.82 1.972,-13.183 9.39,-16.657 12.523,-5.866 24.926,-11.833 38.567,-14.846 30.52,-6.744 54.304,12.505 53.982,47.071 z"
   id="path46" />
		<path
   style="fill:#50a7f2"
   d="m 770.412,1047.865 c 26.831,0 45.943,22.755 43.373,48.257 -1.782,17.682 -7.935,33.773 -15.889,49.339 -3.306,6.469 -8.78,8.888 -15.475,5.479 -6.753,-3.439 -7.649,-9.476 -4.644,-15.831 5.303,-11.216 10.254,-22.511 12.306,-34.847 3.691,-22.196 -7.761,-32.634 -29.528,-27.262 -10.563,2.607 -19.933,7.812 -29.605,12.424 -7.634,3.64 -15.2,4.064 -19.158,-4.708 -3.857,-8.548 1.84,-12.891 9.106,-16.412 16.465,-7.978 33.018,-15.417 49.514,-16.439 z"
   id="path47" />
		<path
   style="fill:#50a7f2"
   d="m 1008.74,1775.653 c -0.151,-28.784 23.196,-47.996 49.337,-44.675 16.92,2.15 32.335,8.013 47.365,15.481 6.969,3.463 9.624,9.018 6.084,16.043 -3.503,6.952 -9.708,7.686 -16.266,4.426 -12.592,-6.26 -25.339,-12.118 -39.659,-12.671 -18.754,-0.724 -27.005,9.762 -22.608,27.921 2.669,11.025 7.839,20.964 12.751,31.047 3.686,7.567 4.961,15.407 -4.2,19.631 -8.741,4.03 -13.04,-1.794 -16.716,-9.22 -8.036,-16.232 -15.263,-32.596 -16.088,-47.983 z"
   id="path48" />
		<path
   style="fill:#50a7f2"
   d="m 1057.567,675.03 c 15.339,0.595 32.921,7.24 49.614,16.334 6.097,3.321 7.688,9.225 4.064,15.499 -3.531,6.111 -9.161,7.303 -15.182,4.29 -11.837,-5.922 -23.873,-10.86 -37.13,-12.82 -19.672,-2.908 -30.51,8.575 -25.933,27.797 2.635,11.069 8.101,20.89 12.861,31.043 3.58,7.636 4.742,15.456 -4.328,19.69 -8.895,4.153 -13.057,-2.102 -16.71,-9.344 -7.205,-14.281 -13.49,-28.857 -15.739,-44.783 -3.786,-26.812 16.225,-48.137 48.483,-47.706 z"
   id="path49" />
		<path
   style="fill:#f2c6b6"
   d="m 677.037,480.2 c -25.631,0.036 -44.519,-22.718 -41.277,-49.172 2.085,-17.012 7.34,-32.845 15.469,-47.851 3.493,-6.448 8.564,-9.35 15.29,-5.97 7.105,3.571 8.118,9.715 4.545,16.597 -6.101,11.753 -10.64,23.973 -12.542,37.182 -2.599,18.046 8.677,28.823 26.338,25.17 12.953,-2.679 24.213,-9.365 36.212,-14.328 7.018,-2.904 13.62,-1.566 16.583,6.221 2.778,7.301 -0.858,12.047 -7.766,14.919 -4.499,1.87 -8.764,4.298 -13.147,6.45 -13.093,6.424 -29.11,10.767 -39.705,10.782 z"
   id="path50" />
		<path
   style="fill:#b586ff"
   d="m 440.626,1864.652 c 0.012,32.242 -26.184,50.134 -58.483,43.349 -13.06,-2.744 -25.476,-7.369 -37.389,-13.391 -6.934,-3.505 -10.62,-8.764 -6.971,-16.216 3.684,-7.524 10.155,-7.597 17.043,-4.172 11.393,5.666 23.147,10.206 35.843,12.091 19.33,2.869 30.033,-8.811 25.722,-27.755 -2.859,-12.562 -9.886,-23.314 -14.256,-35.183 -2.294,-6.229 -1.346,-12.143 5.001,-15.647 5.501,-3.037 11.319,-1.935 14.165,3.399 9.549,17.896 18.914,35.997 19.325,53.525 z"
   id="path51" />
		<path
   style="fill:#50a7f2"
   d="m 1543.243,1112.515 c -11.536,-0.038 -16.727,-7.275 -14.152,-15.221 8.391,-25.885 16.863,-51.744 25.325,-77.606 2.471,-7.551 7.35,-11.899 15.486,-9.302 8.315,2.654 9.273,9.265 6.885,16.67 -8.032,24.906 -16.134,49.791 -24.27,74.663 -2.006,6.131 -5.443,10.77 -9.274,10.796 z"
   id="path52" />
		<path
   style="fill:#75e2ff"
   d="m 1432.268,1579.047 c 0.035,-8.11 7.697,-13.229 15.818,-10.568 25.668,8.409 51.339,16.812 77.004,25.231 7.645,2.508 12.408,7.332 9.599,15.694 -2.732,8.13 -9.424,9.156 -16.816,6.758 -25.137,-8.154 -50.252,-16.377 -75.356,-24.635 -5.98,-1.966 -10.45,-5.348 -10.249,-12.48 z"
   id="path53" />
		<path
   style="fill:#f2e7ae"
   d="m 478.953,552.128 c -0.551,5.578 -5.231,10.825 -12.992,8.497 -27.69,-8.303 -55.17,-17.344 -82.521,-26.713 -6.554,-2.245 -9.503,-8.389 -6.366,-15.245 2.979,-6.51 8.513,-8.478 15.513,-6.152 25.568,8.499 51.159,16.929 76.753,25.35 5.74,1.889 9.894,4.996 9.613,14.263 z"
   id="path54" />
		<path
   style="fill:#ffe393"
   d="m 1432.286,523.173 c -0.01,-7.936 7.063,-13.432 14.613,-10.978 26.393,8.579 52.753,17.263 79.077,26.052 6.856,2.289 10.965,7.028 8.695,14.548 -2.277,7.542 -8.188,10.051 -15.454,7.721 -26.14,-8.381 -52.221,-16.95 -78.243,-25.692 -5.223,-1.754 -8.866,-5.478 -8.688,-11.651 z"
   id="path55" />
		<path
   style="fill:#b586ff"
   d="m 479.068,1603.493 c 0.108,10.7 -7.232,16.024 -15.991,13.217 -25.836,-8.277 -51.614,-16.742 -77.323,-25.403 -7.402,-2.494 -11.665,-7.961 -8.75,-15.927 2.849,-7.785 9.253,-8.592 16.54,-6.187 24.767,8.175 49.556,16.286 74.358,24.352 6.102,1.986 11.183,4.725 11.166,9.948 z"
   id="path56" />
		<path
   style="fill:#50a7f2"
   d="m 484.086,1112.49 c -8.312,0.066 -13.578,-7.414 -10.892,-15.598 8.447,-25.73 16.931,-51.448 25.411,-77.167 2.451,-7.433 7.078,-12.227 15.298,-9.505 8.13,2.692 9.292,9.318 6.888,16.754 -8.128,25.142 -16.301,50.269 -24.568,75.366 -1.898,5.764 -5.234,10.188 -12.137,10.15 z"
   id="path57" />
		<path
   style="fill:#b586ff"
   d="m 976.886,428.729 c -2.352,7.202 -5.093,15.63 -7.857,24.05 -6.213,18.929 -12.442,37.852 -18.652,56.781 -2.375,7.241 -7.517,10.525 -14.685,8.392 -7.622,-2.268 -9.718,-8.491 -7.423,-15.655 8.216,-25.657 16.642,-51.248 25.161,-76.807 2.218,-6.654 6.758,-11.11 14.297,-9.761 6.016,1.077 8.887,5.493 9.159,13 z"
   id="path58" />
		<path
   style="fill:#f2c6b6"
   d="m 977.125,1484.218 c -2.837,8.678 -5.942,18.187 -9.054,27.694 -5.901,18.027 -11.783,36.061 -17.719,54.077 -2.318,7.033 -7.378,10.089 -14.38,8.015 -7.062,-2.092 -9.74,-7.719 -7.557,-14.609 8.365,-26.403 17.012,-52.717 25.661,-79.029 2.292,-6.974 7.558,-9.715 14.527,-8.252 5.668,1.191 8.062,5.527 8.522,12.104 z"
   id="path59" />
		<path
   style="fill:#f2c6b6"
   d="m 984.256,967.059 c 9.154,3.004 19.786,6.517 30.434,9.983 16.225,5.282 32.493,10.434 48.677,15.836 7.805,2.605 11.861,8.304 8.854,16.237 -2.884,7.609 -9.241,8.265 -16.673,5.764 -25.378,-8.54 -50.882,-16.707 -76.321,-25.066 -6.746,-2.216 -9.758,-7.059 -8.377,-13.964 1.226,-6.126 5.597,-8.828 13.406,-8.79 z"
   id="path60" />
		<path
   style="fill:#e8847a"
   d="m 749.429,1664.139 c -1.766,-0.057 -5.169,-2.024 -7.289,-5.881 -2.42,-4.404 -1.966,-8.772 0.955,-12.796 5.826,-8.024 11.688,-16.022 17.624,-23.964 4.334,-5.799 9.986,-7.558 16.154,-3.475 6.383,4.225 7.133,10.432 3.025,16.611 -5.489,8.256 -11.43,16.22 -17.387,24.151 -2.51,3.342 -5.943,5.527 -13.082,5.354 z"
   id="path61" />
		<path
   style="fill:#aaf2a7"
   d="m 1624.673,736.684 c 0.049,4.519 -2.068,7.854 -5.886,9.975 -4.023,2.235 -8.262,2.167 -12.031,-0.509 -8.361,-5.937 -16.66,-11.971 -24.819,-18.182 -5.876,-4.474 -7.731,-10.292 -3.123,-16.576 4.535,-6.186 10.71,-6.469 16.781,-2.351 7.948,5.391 15.656,11.143 23.37,16.872 3.541,2.63 5.812,6.118 5.708,10.771 z"
   id="path62" />
		<path
   style="fill:#e8847a"
   d="m 1838.193,573.449 c -0.347,0.88 -0.869,3.526 -2.278,5.557 -5.559,8.005 -11.12,16.039 -17.218,23.63 -4.688,5.836 -11.048,8.154 -17.444,2.85 -6.004,-4.979 -5.499,-11.237 -1.037,-17.288 5.879,-7.972 11.685,-16 17.698,-23.87 3.366,-4.405 8.113,-5.483 13.122,-3.55 4.786,1.847 7.454,5.579 7.157,12.671 z"
   id="path63" />
		<path
   style="fill:#75e2ff"
   d="m 696.985,920.185 c 4.473,-0.079 7.91,1.862 10.102,5.673 2.302,4.004 2.247,8.258 -0.418,12.009 -6.13,8.629 -12.325,17.224 -18.844,25.559 -4.023,5.144 -9.537,6.429 -15.193,2.799 -5.349,-3.433 -7.458,-9.078 -4.07,-14.414 6.257,-9.858 13.442,-19.142 20.517,-28.455 1.762,-2.32 4.804,-3.252 7.906,-3.171 z"
   id="path64" />
		<path
   style="fill:#aaf2a7"
   d="m 1723.395,955.171 c 0.391,-1.034 0.857,-3.708 2.26,-5.73 5.668,-8.168 11.394,-16.319 17.552,-24.117 4.673,-5.917 11.077,-7.506 17.149,-2.574 6.058,4.921 5.643,11.099 0.974,17.261 -5.805,7.662 -11.276,15.576 -17.05,23.261 -3.355,4.466 -7.853,6.321 -13.34,4.302 -4.96,-1.826 -7.477,-5.506 -7.545,-12.403 z"
   id="path65" />
		<path
   style="fill:#aaf2a7"
   d="m 1588.682,1763.033 c 3.493,-0.335 6.534,1.604 9.437,3.705 7.265,5.256 14.669,10.354 21.613,16.01 5.847,4.763 7.204,11.119 2.204,17.144 -4.835,5.827 -10.892,5.575 -16.878,1.099 -7.96,-5.953 -16.075,-11.704 -23.928,-17.795 -4.328,-3.357 -5.553,-8.063 -3.472,-13.175 1.884,-4.628 5.446,-7.186 11.024,-6.988 z"
   id="path66" />
		<path
   style="fill:#75e2ff"
   d="m 520.895,718.146 c -0.126,-4.484 1.827,-7.898 5.633,-10.11 4.192,-2.436 8.597,-2.147 12.454,0.538 8.416,5.858 16.877,11.702 24.83,18.154 5.565,4.515 7.325,10.791 2.273,16.772 -4.868,5.763 -10.925,5.636 -16.938,1.216 -7.351,-5.404 -14.719,-10.783 -22.092,-16.156 -3.554,-2.591 -6.394,-5.581 -6.16,-10.414 z"
   id="path67" />
		<path
   style="fill:#f2e7ae"
   d="m 1972.045,821.477 c -0.9,-0.339 -3.569,-0.808 -5.596,-2.206 -8.291,-5.719 -16.616,-11.434 -24.478,-17.714 -5.856,-4.678 -7.165,-11.215 -2.287,-17.17 4.731,-5.776 10.894,-5.539 16.857,-1.106 7.951,5.912 16.032,11.656 23.861,17.725 4.479,3.472 5.624,8.355 3.534,13.577 -1.769,4.417 -5.21,6.958 -11.891,6.894 z"
   id="path68" />
		<path
   style="fill:#75e2ff"
   d="m 892.824,1836.285 c 1.602,0.606 4.137,1.036 6.03,2.373 8.504,6.005 16.945,12.112 25.17,18.492 5.374,4.169 6.561,9.727 2.673,15.489 -3.882,5.753 -9.666,7.03 -15.339,3.328 -9.108,-5.944 -17.905,-12.413 -26.465,-19.13 -4.073,-3.197 -5.502,-7.921 -3.499,-13.175 1.87,-4.903 5.805,-6.679 11.43,-7.377 z"
   id="path69" />
		<path
   style="fill:#f2e7ae"
   d="m 520.867,1774.064 c 0.067,-9.262 9.637,-14.447 17.885,-9.127 8.728,5.63 17.167,11.791 25.236,18.332 5.6,4.539 7.119,10.816 2.012,16.739 -4.934,5.722 -10.931,5.512 -16.896,1.104 -7.456,-5.51 -14.923,-11.006 -22.411,-16.472 -3.605,-2.632 -6.104,-5.826 -5.826,-10.576 z"
   id="path70" />
		<path
   style="fill:#e8847a"
   d="m 928.696,809.85 c 0.109,8.991 -9.438,14.832 -17.32,9.885 -9.081,-5.7 -17.763,-12.135 -26.09,-18.9 -5.429,-4.41 -6.778,-10.714 -1.912,-16.415 4.895,-5.736 10.901,-5.485 16.886,-1.041 7.451,5.533 14.971,10.974 22.496,16.406 3.473,2.509 5.905,5.565 5.94,10.065 z"
   id="path71" />
		<path
   style="fill:#ffe393"
   d="m 1838.394,1628.876 c -0.569,1.425 -1.114,4.062 -2.526,6.098 -5.561,8.02 -11.159,16.036 -17.2,23.693 -4.716,5.977 -11.185,8.134 -17.443,2.883 -5.884,-4.938 -5.361,-11.183 -0.71,-17.285 5.912,-7.754 11.434,-15.805 17.359,-23.55 3.265,-4.268 7.743,-5.837 13.002,-3.893 5.014,1.853 7.233,5.695 7.518,12.054 z"
   id="path72" />
		<path
   style="fill:#f2c6b6"
   d="m 1973.161,1877.792 c -4.596,-0.348 -7.809,-3.212 -11.223,-5.677 -6.462,-4.666 -13.117,-9.092 -19.326,-14.074 -5.782,-4.64 -7.948,-10.819 -2.803,-17.024 4.942,-5.961 11.027,-5.727 17.193,-0.987 7.864,6.046 16.042,11.684 23.891,17.749 4.181,3.231 5.41,7.758 3.248,12.688 -2.058,4.694 -5.703,7.407 -10.98,7.325 z"
   id="path73" />
		<path
   style="fill:#e8847a"
   d="m 1769.247,214.584 c 5.706,-0.125 8.612,1.36 10.998,3.629 6.251,5.945 12.595,11.825 18.435,18.161 5.038,5.466 5.696,11.829 0.146,17.363 -5.52,5.505 -11.734,5.102 -17.343,-0.123 -6.428,-5.988 -12.766,-12.092 -18.817,-18.457 -3.752,-3.947 -4.463,-8.861 -2.137,-13.949 2.132,-4.661 6.054,-6.491 8.718,-6.624 z"
   id="path74" />
		<path
   style="fill:#8fe87a"
   d="m 746.485,1300.448 c -0.177,5.676 -2.596,9.382 -6.977,11.615 -4.651,2.371 -9.394,1.859 -13.189,-1.624 -6.965,-6.392 -13.833,-12.927 -20.279,-19.834 -4.108,-4.402 -4.303,-9.928 -0.648,-14.796 3.59,-4.782 9.077,-6.783 14.273,-3.816 10.441,5.962 18.056,15.258 25.613,24.421 0.937,1.137 0.933,3.05 1.207,4.034 z"
   id="path75" />
		<path
   style="fill:#8fe87a"
   d="m 751.985,607.784 c -4.242,-0.171 -7.518,-2.101 -9.55,-5.779 -2.245,-4.064 -1.99,-8.225 0.708,-11.994 5.783,-8.078 11.639,-16.107 17.587,-24.064 4.264,-5.704 9.909,-7.949 16.125,-3.778 6.474,4.344 6.406,10.77 2.419,16.736 -5.519,8.258 -11.541,16.188 -17.552,24.102 -2.339,3.078 -5.631,4.912 -9.737,4.777 z"
   id="path76" />
		<path
   style="fill:#ffe393"
   d="m 703.174,228.207 c -0.23,-6.415 2.313,-9.682 6.499,-11.983 4.546,-2.5 9.094,-2.12 12.75,1.189 7.134,6.456 14.183,13.072 20.64,20.189 4.263,4.7 4.494,10.52 0.003,15.549 -4.006,4.486 -9.386,6.354 -14.464,2.678 -9.124,-6.606 -17.029,-14.681 -24.092,-23.48 -1.115,-1.39 -1.181,-3.621 -1.336,-4.142 z"
   id="path77" />
		<path
   style="fill:#f2e7ae"
   d="m 1244.625,1841.656 c -6.376,0.156 -9.739,-2.477 -11.891,-6.635 -2.394,-4.626 -1.911,-9.41 1.529,-13.168 6.378,-6.968 12.927,-13.828 19.914,-20.173 4.722,-4.288 10.46,-4.35 15.531,-0.127 4.524,3.768 6.099,9.08 3.008,14.011 -6.182,9.862 -14.928,17.543 -23.89,24.851 -1.361,1.109 -3.642,1.09 -4.201,1.241 z"
   id="path78" />
		<path
   style="fill:#e8847a"
   d="m 188.383,1841.71 c -6.344,0.129 -9.64,-2.387 -11.88,-6.588 -2.548,-4.778 -1.73,-9.361 1.692,-13.121 6.134,-6.74 12.416,-13.386 19.092,-19.58 4.789,-4.443 10.701,-5.017 15.933,-0.689 4.758,3.936 6.575,9.629 2.821,14.825 -6.478,8.967 -14.467,16.703 -23.042,23.719 -1.475,1.206 -3.915,1.233 -4.616,1.434 z"
   id="path79" />
		<path
   style="fill:#8fe87a"
   d="m 204.52,742.683 c 6.274,-0.27 9.682,2.21 12.022,6.303 2.418,4.23 2.462,8.794 -0.742,12.339 -6.768,7.487 -13.751,14.83 -21.191,21.638 -4.217,3.859 -9.659,3.962 -14.305,0.105 -4.641,-3.853 -6.391,-9.35 -3.32,-14.414 6.025,-9.935 14.691,-17.683 23.761,-24.853 1.269,-1.004 3.334,-0.998 3.775,-1.118 z"
   id="path80" />
		<path
   style="fill:#ffe393"
   d="m 1260.797,742.732 c 5.693,-0.137 9.045,1.76 11.24,5.677 2.567,4.58 2.625,9.425 -0.78,13.236 -6.618,7.406 -13.512,14.627 -20.866,21.291 -4.255,3.855 -9.809,3.684 -14.401,-0.014 -4.302,-3.466 -6.445,-8.612 -3.493,-13.459 6.303,-10.348 15.101,-18.606 24.817,-25.801 1.188,-0.88 3.065,-0.828 3.483,-0.93 z"
   id="path81" />
		<path
   style="fill:#f2e7ae"
   d="m 1802.102,1300.517 c 0.176,5.984 -2.144,9.469 -6.486,11.583 -4.917,2.393 -9.724,1.676 -13.614,-1.911 -6.715,-6.191 -13.293,-12.564 -19.516,-19.244 -4.092,-4.392 -4.291,-9.908 -1.064,-14.883 3.06,-4.718 8.488,-7.114 13.225,-4.503 11.085,6.109 19.426,15.578 26.895,25.699 0.765,1.037 0.498,2.837 0.56,3.259 z"
   id="path82" />
		<path
   style="fill:#f2c2dc"
   d="m 1887.698,337.479 c -7.273,-0.754 -11.082,-5.21 -11.205,-12.522 -0.124,-7.352 4.133,-11.906 11.249,-11.995 7.809,-0.098 11.886,5.329 11.879,12.662 -0.01,7.052 -4.185,11.351 -11.923,11.855 z"
   id="path83" />
		<path
   style="fill:#f2c6b6"
   d="m 605.983,1202.452 c 0.377,-7.205 4.514,-11.513 11.667,-11.549 7.562,-0.038 11.766,5.01 11.825,12.247 0.059,7.193 -4.477,11.847 -11.638,11.775 -7.328,-0.074 -11.491,-4.648 -11.854,-12.473 z"
   id="path84" />
		<path
   style="fill:#aaf2a7"
   d="m 831.521,337.43 c -7.35,-0.605 -11.342,-5.325 -11.315,-12.402 0.027,-6.987 4.254,-11.662 11.66,-11.662 7.993,0.001 11.262,5.57 11.245,12.513 -0.016,6.81 -4.022,11.076 -11.59,11.551 z"
   id="path85" />
		<path
   style="fill:#ffe393"
   d="m 1342.58,1701.242 c 6.767,0.958 11.533,4.592 11.373,11.95 -0.166,7.617 -5.351,11.497 -12.523,11.511 -7.268,0.014 -11.688,-4.658 -11.628,-11.729 0.063,-7.535 5.312,-10.985 12.778,-11.732 z"
   id="path86" />
		<path
   style="fill:#f2c6b6"
   d="m 286.251,645.355 c 7.326,0.457 11.761,4.439 11.661,11.674 -0.104,7.572 -5.104,11.51 -12.461,11.398 -7.199,-0.11 -11.743,-4.111 -11.63,-11.577 0.118,-7.779 5.181,-11.017 12.43,-11.495 z"
   id="path87" />
		<path
   style="fill:#8fe87a"
   d="m 297.847,1713.234 c -0.694,7.574 -5.258,11.514 -12.467,11.506 -7.17,-0.01 -11.639,-4.251 -11.576,-11.604 0.068,-7.851 5.46,-11.301 12.499,-11.28 6.916,0.02 10.917,4.213 11.544,11.378 z"
   id="path88" />
		<path
   style="fill:#aaf2a7"
   d="m 332.261,1192.042 c -0.974,6.846 -4.593,11.442 -11.954,11.573 -7.329,0.131 -11.854,-3.924 -11.914,-11.313 -0.063,-7.717 5.145,-11.779 12.188,-11.913 6.929,-0.131 10.791,4.501 11.68,11.653 z"
   id="path89" />
		<path
   style="fill:#75e2ff"
   d="m 843.562,1381.488 c -0.624,7.188 -4.558,11.751 -11.73,11.73 -7.529,-0.022 -11.668,-5.117 -11.63,-12.36 0.036,-6.91 4.34,-11.529 11.328,-11.536 7.414,-0.01 11.386,4.679 12.032,12.166 z"
   id="path90" />
		<path
   style="fill:#75e2ff"
   d="m 1685.487,147.235 c -0.705,7.012 -4.421,11.517 -11.773,11.519 -7.819,0.003 -11.519,-5.324 -11.609,-12.373 -0.091,-7.135 4.281,-11.918 11.552,-11.772 7.431,0.148 11.161,5.125 11.83,12.626 z"
   id="path91" />
		<path
   style="fill:#75e2ff"
   d="m 1141.248,335.873 c -0.839,7.601 -5.483,11.739 -12.609,11.751 -6.846,0.012 -11.566,-4.317 -11.457,-11.375 0.115,-7.492 5.13,-11.672 12.407,-11.702 7.041,-0.03 10.898,4.331 11.659,11.326 z"
   id="path92" />
		<path
   style="fill:#f2c2dc"
   d="m 1162.903,1938.896 c -7.264,-0.408 -11.389,-4.815 -11.317,-11.788 0.075,-7.252 5.032,-11.079 12.185,-11.049 7.236,0.03 11.896,4.019 11.747,11.328 -0.151,7.461 -4.971,11.203 -12.615,11.509 z"
   id="path93" />
		<path
   style="fill:#aaf2a7"
   d="m 308.319,1415.593 c -0.84,7.244 -4.347,12.101 -11.424,12.051 -7.73,-0.055 -11.967,-5.224 -11.893,-12.702 0.067,-6.755 4.315,-11.092 11.172,-11.17 7.759,-0.089 10.878,5.337 12.145,11.821 z"
   id="path94" />
		<path
   style="fill:#f2c2dc"
   d="m 1899.433,1381.716 c -0.29,7.354 -4.458,11.495 -11.307,11.512 -7.498,0.019 -11.576,-4.957 -11.574,-12.266 0,-7.259 4.397,-11.766 11.568,-11.661 7.546,0.11 11.089,5.152 11.313,12.415 z"
   id="path95" />
		<path
   style="fill:#f2e7ae"
   d="m 1140.938,112.306 c 0.738,-7.272 4.513,-11.638 11.627,-11.604 7.631,0.036 11.782,4.88 11.745,12.238 -0.034,6.793 -4.19,11.194 -11.083,11.251 -7.623,0.063 -11.177,-4.968 -12.289,-11.885 z"
   id="path96" />
		<path
   style="fill:#75e2ff"
   d="m 616.959,134.765 c 7.902,0.717 12.035,5.073 12.143,12.423 0.106,7.186 -4.366,11.471 -11.326,11.465 -7.436,-0.007 -11.7,-4.518 -11.736,-12.159 -0.034,-7.353 4.393,-10.721 10.919,-11.729 z"
   id="path97" />
		<path
   style="fill:#8fe87a"
   d="m 1685.309,1203.298 c -0.708,7.156 -4.666,11.711 -11.791,11.677 -7.619,-0.036 -11.348,-5.333 -11.304,-12.524 0.042,-6.963 4.174,-11.525 11.215,-11.474 7.516,0.054 11.065,5.121 11.88,12.321 z"
   id="path98" />
		<path
   style="fill:#75e2ff"
   d="m 95.377,871.156 c 0.828,-7.141 4.989,-11.38 12.048,-11.511 7.188,-0.134 11.747,4.135 11.838,11.411 0.097,7.758 -5.129,11.565 -12.252,11.635 -7.059,0.069 -10.667,-4.6 -11.634,-11.535 z"
   id="path99" />
		<path
   style="fill:#f2e7ae"
   d="m 1352.212,347.672 c 7.778,1.02 12.099,5.449 12.089,12.596 -0.01,6.882 -4.402,11.378 -11.477,11.212 -7.474,-0.175 -11.556,-4.942 -11.583,-12.314 -0.027,-7.201 4.422,-10.675 10.971,-11.494 z"
   id="path100" />
		<path
   style="fill:#f2c6b6"
   d="m 72.689,1403.867 c -7.282,-0.757 -11.545,-4.646 -11.51,-11.702 0.038,-7.631 4.877,-11.788 12.253,-11.641 7.041,0.141 11.35,4.565 11.154,11.659 -0.203,7.322 -5.122,10.793 -11.897,11.684 z"
   id="path101" />
		<path
   style="fill:#f2e7ae"
   d="m 1364.407,135.995 c 0.645,-7.193 5.003,-11.27 11.974,-11.458 7.234,-0.196 11.821,4.247 11.776,11.458 -0.047,7.496 -5.075,11.678 -12.32,11.616 -6.931,-0.059 -10.929,-4.285 -11.43,-11.616 z"
   id="path102" />
		<path
   style="fill:#ffe393"
   d="m 1163.119,882.614 c -6.984,-0.606 -11.33,-4.11 -11.23,-11.396 0.108,-7.827 5.289,-11.493 12.338,-11.501 6.911,-0.008 11.365,4.349 11.324,11.396 -0.045,7.714 -5.223,10.961 -12.432,11.501 z"
   id="path103" />
		<path
   style="fill:#75e2ff"
   d="m 296.624,347.694 c 7.539,0.622 11.506,5.356 11.48,12.403 -0.025,6.758 -4.187,11.409 -11.363,11.327 -7.656,-0.088 -11.629,-5.161 -11.634,-12.28 -0.006,-6.881 4.221,-10.931 11.517,-11.45 z"
   id="path104" />
		<path
   style="fill:#f2c2dc"
   d="m 1340.991,1414.994 c 0.986,-6.68 4.503,-11.003 11.808,-10.768 7.485,0.241 11.347,5.006 11.436,11.974 0.09,7.072 -4.494,11.46 -11.387,11.343 -7.337,-0.125 -11.265,-4.938 -11.857,-12.549 z"
   id="path105" />
		<path
   style="fill:#ffe393"
   d="m 332.259,135.927 c -1.014,7.305 -5.338,11.566 -12.633,11.463 -6.991,-0.098 -11.351,-4.385 -11.119,-11.52 0.239,-7.349 5.247,-11.261 12.155,-11.314 6.916,-0.053 10.914,4.203 11.597,11.371 z"
   id="path106" />
		<path
   style="fill:#f2c6b6"
   d="m 96.689,1180.448 c -7.577,-0.612 -11.541,-5.385 -11.558,-12.465 -0.017,-6.892 4.418,-11.505 11.469,-11.274 7.47,0.246 11.575,5.331 11.432,12.598 -0.132,6.735 -4.262,10.64 -11.343,11.141 z"
   id="path107" />
		<path
   style="fill:#f2e7ae"
   d="m 1341.945,645.541 c 7.696,0.102 11.617,4.434 11.625,11.246 0.01,7.476 -4.838,11.6 -12.24,11.574 -7.119,-0.025 -11.473,-4.414 -11.403,-11.285 0.074,-7.357 4.754,-11.355 12.018,-11.535 z"
   id="path108" />
		<path
   style="fill:#ffe393"
   d="m 105.8,1938.872 c -5.919,-0.39 -10.317,-3.913 -10.362,-11.116 -0.05,-7.848 5.174,-11.492 12.263,-11.531 7.025,-0.039 11.364,4.492 11.258,11.427 -0.111,7.228 -4.725,11.014 -13.159,11.22 z"
   id="path109" />
		<path
   style="fill:#f2c6b6"
   d="m 84.952,335.519 c -0.83,7.737 -5.455,11.898 -12.588,11.934 -6.746,0.034 -11.054,-4.385 -10.947,-11.263 0.117,-7.54 4.822,-11.82 12.249,-11.716 6.82,0.095 10.543,4.361 11.286,11.045 z"
   id="path110" />
		<path
   style="fill:#e8847a"
   d="m 96.615,124.022 c -7.461,-0.69 -11.406,-5.305 -11.426,-12.189 -0.019,-6.886 4.386,-11.43 11.434,-11.363 7.386,0.071 11.313,5.102 11.353,12.08 0.039,7.009 -4.278,10.905 -11.361,11.472 z"
   id="path111" />
		<path
   style="fill:#ffe393"
   d="m 1375.495,1203.758 c -6.531,-0.896 -11.067,-4.341 -10.761,-11.665 0.307,-7.36 4.947,-11.281 12.107,-11.317 7.313,-0.037 11.335,4.705 11.182,11.509 -0.16,7.137 -4.923,10.971 -12.528,11.473 z"
   id="path112" />
		<path
   style="fill:#50a7f2"
   d="m 1593.354,361.145 c -0.941,6.551 -4.454,11.078 -11.613,11.176 -7.468,0.103 -11.687,-4.594 -11.745,-11.618 -0.06,-7.236 4.747,-11.654 11.886,-11.477 6.836,0.17 10.882,4.496 11.472,11.919 z"
   id="path113" />
		<path
   style="fill:#b586ff"
   d="m 333.024,962.494 c -0.397,7.962 -4.656,12.089 -11.761,12.072 -6.979,-0.017 -11.256,-4.343 -11.244,-11.484 0.012,-7.157 4.277,-11.31 11.318,-11.375 7.102,-0.065 10.758,4.376 11.687,10.787 z"
   id="path114" />
		<path
   style="fill:#f2c6b6"
   d="m 1499.249,1398.677 c -0.1,8.075 -4.48,12.098 -11.205,12.257 -7.019,0.166 -11.888,-4.078 -11.896,-11.433 -0.01,-7.064 4.41,-11.262 11.462,-11.288 7.006,-0.026 11.032,3.986 11.639,10.464 z"
   id="path115" />
		<path
   style="fill:#f2c6b6"
   d="m 304.374,1068.673 c -6.816,-0.682 -11.512,-3.884 -11.734,-11.192 -0.215,-7.125 3.612,-11.449 10.796,-11.846 7.576,-0.419 11.824,4.161 12.111,11.163 0.284,6.946 -4.112,10.971 -11.173,11.875 z"
   id="path116" />
		<path
   style="fill:#b586ff"
   d="m 536.28,908.775 c -7,-0.96 -11.402,-4.828 -11.137,-11.836 0.259,-6.846 4.467,-11.12 11.679,-11.028 7.209,0.092 11.282,4.415 11.353,11.321 0.076,7.462 -4.969,10.73 -11.895,11.543 z"
   id="path117" />
		<path
   style="fill:#f2e7ae"
   d="m 912.966,1698.643 c -6.985,-0.88 -11.477,-4.499 -11.578,-11.598 -0.106,-7.455 4.575,-11.649 11.715,-11.553 6.96,0.094 11.366,4.641 11.38,11.595 0.015,7.094 -4.746,10.605 -11.517,11.556 z"
   id="path118" />
		<path
   style="fill:#75e2ff"
   d="m 1488.057,331.954 c 7.033,0.622 11.194,4.462 11.079,11.874 -0.114,7.305 -4.695,11.153 -11.57,11.155 -7.039,0.002 -11.491,-4.532 -11.496,-11.396 0,-7.005 4.165,-11.359 11.987,-11.633 z"
   id="path119" />
		<path
   style="fill:#75e2ff"
   d="m 592.707,1643.667 c -8.336,-0.342 -12.557,-4.72 -12.644,-11.66 -0.086,-6.845 4.272,-11.37 11.399,-11.338 7.013,0.032 11.439,4.224 11.567,11.251 0.128,7.041 -4.277,10.8 -10.322,11.747 z"
   id="path120" />
		<path
   style="fill:#50a7f2"
   d="m 1146.208,482.523 c -8.032,-0.071 -12.214,-4.289 -12.331,-11.095 -0.121,-7.061 4.208,-11.843 11.567,-11.737 6.946,0.1 11.372,4.324 11.387,11.449 0.014,7.109 -4.253,10.89 -10.623,11.383 z"
   id="path121" />
		<path
   style="fill:#50a7f2"
   d="m 1164.33,1168.91 c -0.654,6.47 -3.879,10.936 -10.981,11.093 -7.673,0.169 -11.493,-4.826 -11.693,-11.692 -0.195,-6.664 3.946,-11.388 10.822,-11.438 7.243,-0.053 11.138,4.542 11.852,12.037 z"
   id="path122" />
		<path
   style="fill:#f2c6b6"
   d="m 432.983,332.044 c 6.591,0.226 10.206,4.886 10.157,11.569 -0.05,6.847 -4.304,11.301 -11.479,11.302 -7.241,10e-4 -11.422,-4.665 -11.358,-11.404 0.066,-6.88 4.075,-11.497 12.68,-11.467 z"
   id="path123" />
		<path
   style="fill:#50a7f2"
   d="m 1005.951,128.696 c 0.66,-7.328 4.826,-11.397 11.702,-11.468 7.026,-0.073 11.48,4.345 11.471,11.326 -0.01,6.964 -4.428,11.322 -11.476,11.329 -7.063,0.008 -10.805,-4.399 -11.697,-11.187 z"
   id="path124" />
		<path
   style="fill:#e8847a"
   d="m 89.164,1538.85 c -7.261,-0.731 -11.473,-4.786 -11.539,-11.653 -0.067,-6.965 4.285,-11.395 11.305,-11.421 7.079,-0.026 11.25,4.514 11.284,11.438 0.035,6.953 -4.165,10.914 -11.05,11.636 z"
   id="path125" />
		<path
   style="fill:#f2e7ae"
   d="m 923.791,122.807 c -7.058,-0.713 -11.429,-4.606 -11.47,-11.586 -0.039,-6.795 4.223,-10.975 11.101,-11.227 7.303,-0.268 11.519,4.216 11.68,11.067 0.163,6.946 -4.245,10.925 -11.311,11.746 z"
   id="path126" />
		<path
   style="fill:#f2c6b6"
   d="m 1659.081,1631.833 c -0.669,6.888 -4.296,11.314 -11.331,11.565 -7.295,0.26 -11.278,-4.383 -11.375,-11.249 -0.103,-7.245 4.416,-11.792 11.604,-11.699 6.687,0.088 10.482,4.445 11.102,11.383 z"
   id="path127" />
		<path
   style="fill:#50a7f2"
   d="m 1604.185,896.651 c -0.704,7.947 -4.669,12.149 -11.635,12.126 -7.294,-0.024 -11.585,-4.575 -11.361,-11.846 0.216,-6.979 4.435,-11.129 11.649,-10.995 7.289,0.136 10.413,4.815 11.347,10.715 z"
   id="path128" />
		<path
   style="fill:#aaf2a7"
   d="m 869.401,952.402 c -0.881,6.951 -4.597,11.242 -11.759,11.058 -7.066,-0.182 -11.275,-4.436 -11.143,-11.496 0.132,-7.047 4.449,-11.105 11.549,-11.057 7.271,0.049 10.602,4.621 11.353,11.495 z"
   id="path129" />
		<path
   style="fill:#f2c6b6"
   d="m 537.011,360.701 c -0.461,7.416 -4.389,11.536 -11.447,11.541 -7.138,0.005 -11.365,-4.439 -11.369,-11.421 -0.004,-7.024 4.317,-11.31 11.431,-11.311 7.167,-0.003 10.831,4.329 11.385,11.191 z"
   id="path130" />
		<path
   style="fill:#aaf2a7"
   d="m 1581.927,1428.203 c -7.767,-0.213 -11.685,-4.508 -11.741,-11.376 -0.057,-7.011 4.3,-11.349 11.397,-11.389 6.999,-0.04 10.855,4.334 10.976,11.159 0.125,7.094 -3.683,11.179 -10.632,11.606 z"
   id="path131" />
		<path
   style="fill:#75e2ff"
   d="m 526.763,1428.231 c -8.733,-0.067 -12.416,-4.881 -12.344,-11.783 0.069,-6.594 4.231,-11.095 11.229,-11.039 7.11,0.057 11.349,4.273 11.38,11.372 0.031,7.045 -3.887,11.136 -10.265,11.45 z"
   id="path132" />
		<path
   style="fill:#f2e7ae"
   d="m 443.122,1398.846 c -0.291,7.805 -4.329,12.097 -11.205,12.165 -7.141,0.071 -11.737,-4.484 -11.628,-11.659 0.105,-6.864 4.438,-11.286 11.526,-11.28 7.149,0.01 10.745,4.461 11.307,10.774 z"
   id="path133" />
		<path
   style="fill:#8fe87a"
   d="m 1659.15,575.209 c -0.625,7.543 -4.107,11.809 -11.372,11.952 -7.545,0.149 -11.755,-4.228 -11.746,-11.399 0.01,-6.967 4.305,-11.218 11.484,-11.259 7.22,-0.039 10.771,4.271 11.634,10.706 z"
   id="path134" />
		<path
   style="fill:#75e2ff"
   d="m 912.733,642.205 c -7.297,-0.738 -11.331,-4.78 -11.29,-11.78 0.041,-7.015 4.69,-10.904 11.333,-10.916 6.986,-0.012 11.514,4.323 11.427,11.393 -0.086,7 -4.491,10.812 -11.47,11.303 z"
   id="path135" />
		<path
   style="fill:#f2c6b6"
   d="m 1140.668,1391.848 c -0.82,6.818 -4.274,11.499 -11.66,11.626 -6.988,0.12 -11.078,-4.2 -11.18,-10.881 -0.109,-7.166 4.215,-11.579 11.515,-11.737 6.947,-0.149 10.618,3.897 11.325,10.992 z"
   id="path136" />
		<path
   style="fill:#f2c6b6"
   d="m 83.176,1621.241 c -0.988,6.92 -4.698,11.282 -11.468,11.238 -6.927,-0.046 -11.33,-4.224 -11.324,-11.388 0.006,-7.187 4.404,-11.26 11.387,-11.239 7.166,0.022 10.513,4.786 11.405,11.389 z"
   id="path137" />
		<path
   style="fill:#f2c6b6"
   d="m 71.95,576.478 c -7.695,-0.533 -11.237,-4.975 -11.196,-11.513 0.044,-7.061 3.953,-11.805 11.589,-11.395 7.132,0.383 10.996,4.898 10.785,11.861 -0.214,7.097 -4.708,10.597 -11.178,11.047 z"
   id="path138" />
		<path
   style="fill:#8fe87a"
   d="m 1359.272,1045.569 c 8.004,0.467 12.068,4.798 12.117,11.568 0.047,6.546 -3.878,11.291 -10.912,11.337 -6.985,0.045 -11.276,-3.674 -11.472,-11.101 -0.198,-7.502 4.234,-10.697 10.267,-11.804 z"
   id="path139" />
		<path
   style="fill:#8fe87a"
   d="m 1902.582,952.354 c 0.735,-7.252 4.464,-11.38 11.585,-11.472 7.45,-0.096 11.086,4.786 11.098,11.476 0.013,6.853 -4.12,11.49 -11.322,11.345 -7.046,-0.141 -10.73,-4.538 -11.361,-11.349 z"
   id="path140" />
		<path
   style="fill:#75e2ff"
   d="m 1156.326,1528.385 c -0.138,5.758 -3.923,10.061 -11.019,10.052 -7.143,-0.01 -11.161,-4.716 -11.214,-11.603 -0.053,-6.845 4.371,-11.149 11.035,-11.214 6.852,-0.069 11.189,3.835 11.198,12.765 z"
   id="path141" />
		<path
   style="fill:#75e2ff"
   d="m 1980.115,99.655 c 7.151,0.402 11.375,4.56 11.348,11.662 -0.026,6.97 -4.45,11.164 -11.511,11.177 -7.033,0.013 -10.91,-4.587 -11.004,-11.137 -0.096,-6.706 3.473,-11.317 11.167,-11.702 z"
   id="path142" />
		<path
   style="fill:#ffe393"
   d="m 1116.578,564.919 c 0.621,-7.231 4.492,-11.346 11.589,-11.292 7.135,0.055 11.292,4.342 11.259,11.428 -0.032,7.153 -4.375,11.178 -11.474,11.167 -7.212,-0.01 -10.793,-4.335 -11.374,-11.303 z"
   id="path143" />
		<path
   style="fill:#f2c6b6"
   d="m 1980.204,1156.062 c 6.939,0.345 11.104,4.195 11.213,11.26 0.111,7.24 -4.583,11.25 -11.372,11.422 -6.882,0.175 -10.976,-4.354 -11.066,-11.079 -0.092,-6.867 3.578,-11.268 11.225,-11.603 z"
   id="path144" />
		<path
   style="fill:#aaf2a7"
   d="m 1969.436,1675.551 c 6.841,0.807 10.862,4.496 10.851,11.411 -0.011,7.082 -3.933,11.402 -11.11,11.414 -7.161,0.012 -11.262,-4.33 -11.245,-11.345 0.017,-7.16 4.696,-10.586 11.504,-11.48 z"
   id="path145" />
		<path
   style="fill:#75e2ff"
   d="m 1968.805,642.26 c -6.906,-0.629 -11.069,-4.179 -11.023,-11.502 0.047,-7.394 4.6,-11.244 11.419,-11.28 7.023,-0.037 11.138,4.253 11.085,11.501 -0.054,7.292 -4.2,10.866 -11.481,11.281 z"
   id="path146" />
		<path
   style="fill:#f2e7ae"
   d="m 1116.623,1621.148 c 0.429,-8.04 5.116,-11.579 11.798,-11.495 6.749,0.084 10.982,4.56 10.817,11.355 -0.167,6.877 -4.246,11.465 -11.447,11.245 -7.039,-0.215 -10.682,-4.656 -11.168,-11.105 z"
   id="path147" />
		<path
   style="fill:#ffe393"
   d="m 602.758,575.838 c -0.786,7 -4.426,11.225 -11.648,11.18 -7.141,-0.044 -10.912,-4.625 -10.884,-11.223 0.029,-6.952 4.358,-11.336 11.5,-11.213 6.888,0.119 10.478,4.38 11.032,11.256 z"
   id="path148" />
		<path
   style="fill:#f2e7ae"
   d="m 547.954,1953.065 c -0.449,7.851 -4.807,11.781 -11.567,11.74 -6.868,-0.041 -11.433,-4.415 -11.249,-11.461 0.173,-6.633 4.218,-10.832 11.227,-10.908 7.353,-0.079 10.624,4.436 11.589,10.629 z"
   id="path149" />
		<path
   style="fill:#8fe87a"
   d="m 1018.379,1195.889 c -7.759,-0.093 -11.533,-4.082 -11.735,-10.843 -0.214,-7.136 4.107,-11.508 11.006,-11.621 6.89,-0.113 11.524,4.207 11.483,11.22 -0.039,6.833 -3.967,11.115 -10.754,11.244 z"
   id="path150" />
		<path
   style="fill:#50a7f2"
   d="m 922.804,1156.142 c 8.522,0.079 12.208,4.547 12.304,11.332 0.101,7.143 -4.688,11.238 -11.495,11.184 -6.628,-0.052 -10.896,-4.059 -10.89,-11.159 0.006,-7.244 3.923,-10.991 10.081,-11.357 z"
   id="path151" />
		<path
   style="fill:#f2c2dc"
   d="m 1388.678,963.016 c -0.311,7.317 -4.195,11.323 -11.271,11.449 -7.354,0.131 -11.186,-4.6 -11.202,-11.382 -0.016,-6.678 4.169,-11.077 11.027,-11.115 6.961,-0.037 11.106,3.84 11.446,11.048 z"
   id="path152" />
		<path
   style="fill:#f2c6b6"
   d="m 89.947,482.4 c -8.318,-0.255 -11.762,-4.898 -11.814,-11.306 -0.056,-6.791 3.919,-11.665 11.175,-11.431 6.888,0.222 11.282,4.323 11.146,11.578 -0.135,7.221 -4.516,10.684 -10.507,11.159 z"
   id="path153" />
		<path
   style="fill:#8fe87a"
   d="m 1592.651,1942.183 c 7.213,0.415 11.241,4.037 11.34,11.263 0.101,7.416 -4.561,11.214 -11.239,11.336 -6.845,0.125 -11.34,-3.948 -11.272,-11.209 0.067,-7.108 4.164,-10.848 11.171,-11.39 z"
   id="path154" />
	</g>
</g></g><g
       id="g5"
       transform="translate(0,-4.7704113)"
       style="opacity:0.3"><g
         id="g1"
         transform="matrix(0.26458333,0,0,0.26458333,47.291469,13.708997)"
         style="opacity:1"><path
           d="m 0,0 c 0.67343445,-1.4603e-4 1.3468689,-2.9205e-4 2.0407105,-4.425e-4 2.2238487,6.9614e-4 4.4476136,0.00847457 6.6714477,0.01631164 1.5427088,0.0018652 3.0854188,0.0032886 4.6281278,0.0042877 4.058992,0.0038168 8.117948,0.01364002 12.176926,0.02470398 4.870865,0.01203124 9.741742,0.01662033 14.612617,0.02245331 7.398562,0.0096949 14.797045,0.0288573 22.19561,0.04621124 0,13.85999963 0,27.71999963 0,41.99999963 -3.96,0 -7.92,0 -12,0 0,-9.9 0,-19.8 0,-30 -7.190263,0.09689 -14.379943,0.199595 -21.569824,0.317383 -2.446237,0.0383 -4.892531,0.07315 -7.338867,0.104492 -3.515017,0.04563 -7.029644,0.10363 -10.544434,0.164063 -1.0949171,0.01155 -2.1898347,0.0231 -3.3179317,0.035 -1.0207562,0.01987 -2.0415124,0.03974 -3.0932007,0.06021 -1.3456906,0.01999 -1.3456906,0.01999 -2.7185669,0.04037 -2.61218433,0.30094 -4.2355116,0.815811 -6.4171752,2.278473 -3.4848881,10.454664 -1.6328645,21.985934 -2,33 22.7699995,0 45.5399995,0 68.9999995,0 0,3.96 0,7.92 0,12 -2.831264,0.02973 -2.831264,0.02973 -5.719726,0.06006 -6.238636,0.06779 -12.477112,0.144567 -18.715565,0.227468 -3.782112,0.04993 -7.564196,0.09626 -11.346447,0.134348 -3.650572,0.03689 -7.300912,0.08326 -10.951286,0.136189 -1.392196,0.01852 -2.784442,0.03364 -4.176712,0.04528 -1.9510856,0.0169 -3.9020424,0.04707 -5.8529589,0.07781 -1.1103057,0.01332 -2.2206115,0.02665 -3.3645629,0.04037 -2.8089255,0.272287 -4.4846474,0.824896 -6.8727417,2.278473 0,1.98 0,3.96 0,6 3.4584369,2.10507 6.2245213,2.270695 10.2373046,2.318848 1.8915079,0.0298 1.8915079,0.0298 3.8212281,0.06021 1.3711118,0.01188 2.7422268,0.02354 4.1133418,0.035 1.406771,0.01872 2.81353,0.03829 4.220276,0.05869 3.695571,0.05128 7.391179,0.09093 11.086914,0.128143 3.773997,0.04007 7.547843,0.09115 11.321717,0.141297 7.399644,0.09671 14.799346,0.180112 22.199218,0.257812 0,3.96 0,7.92 0,12 -8.875517,0.09287 -17.750865,0.163851 -26.626763,0.207249 -4.121902,0.02083 -8.24347,0.04907 -12.36518,0.09451 -3.981152,0.04361 -7.961985,0.06741 -11.943357,0.07775 -1.5154083,0.0074 -3.0307996,0.02175 -4.5460705,0.04341 -14.7527677,0.202458 -14.7527677,0.202458 -20.5186295,-4.422921 -4.16027,-4.488712 -5.119881,-7.713716 -5.177001,-13.737304 -0.01284,-1.178425 -0.02567,-2.35685 -0.0389,-3.570984 -0.0074,-1.274984 -0.01477,-2.549967 -0.02238,-3.863587 -0.0081,-1.310916 -0.01614,-2.621832 -0.02446,-3.972473 -0.01502,-2.777403 -0.02486,-5.554781 -0.03242,-8.332214 -0.01105,-3.545241 -0.04543,-7.089851 -0.08517,-10.634869 -0.03255,-3.395122 -0.03695,-6.790178 -0.04544,-10.185444 -0.01751,-1.266886 -0.03502,-2.533773 -0.05305,-3.83905 0.01681,-6.844623 0.268261,-11.354046 4.478836,-16.8640746 C -9.8520753,0.6439049 -6.4599397,-0.01176674 0,0 Z"
           fill="#0e518c"
           transform="translate(24.674561,5.8864746)"
           id="path1" /><path
           d="m 0,0 c 14.85,0 29.7,0 45,0 0,3.96 0,7.92 0,12 C 30.15,12 15.3,12 0,12 0,8.04 0,4.08 0,0 Z"
           fill="#ed0049"
           transform="translate(24,27)"
           id="path2" /></g><g
         id="g4"
         transform="matrix(0.51832267,0,0,0.51832267,28.846974,21.040142)"><text
           xml:space="preserve"
           style="font-weight:900;font-size:7.05556px;font-family:Arial;-inkscape-font-specification:'Arial Heavy';opacity:1;fill:#ed0049;fill-opacity:1;stroke-width:0.264583"
           x="36.139038"
           y="47.985313"
           id="text1"><tspan
             sodipodi:role="line"
             id="tspan1"
             style="font-style:normal;font-variant:normal;font-weight:bold;font-stretch:normal;font-family:Arial;-inkscape-font-specification:'Arial Bold';fill:#ed0049;fill-opacity:1;stroke-width:0.264583"
             x="36.139038"
             y="47.985313"><tspan
   style="fill:#ed0049;fill-opacity:1"
   id="tspan2">Book</tspan> <tspan
   style="fill:#ed0049;fill-opacity:1"
   id="tspan3" /></tspan></text><text
           xml:space="preserve"
           style="font-style:normal;font-variant:normal;font-weight:bold;font-stretch:normal;font-size:7.05556px;font-family:Arial;-inkscape-font-specification:'Arial Bold';opacity:1;fill:#0e518c;fill-opacity:1;stroke-width:0.264583"
           x="55.074051"
           y="47.985313"
           id="text4"><tspan
             sodipodi:role="line"
             id="tspan4"
             style="fill:#0e518c;fill-opacity:1;stroke-width:0.264583"
             x="55.074051"
             y="47.985313">Preview</tspan></text></g></g></g></svg>
