<?xml version="1.0" encoding="UTF-8"?>
<svg version="1.1" xmlns="http://www.w3.org/2000/svg" width="96" height="96">
<path d="M0 0 C0.67343445 -0.00014603 1.3468689 -0.00029205 2.04071045 -0.0004425 C4.26455924 0.00025364 6.48832406 0.00803207 8.7121582 0.01586914 C10.25486709 0.01773438 11.79757657 0.01915778 13.34028625 0.02015686 C17.39927813 0.0239737 21.45823418 0.03379688 25.51721191 0.04486084 C30.38807688 0.05689208 35.25895383 0.06148117 40.12982941 0.06731415 C47.528391 0.07700907 54.926874 0.09617145 62.32543945 0.11352539 C62.32543945 13.97352539 62.32543945 27.83352539 62.32543945 42.11352539 C58.36543945 42.11352539 54.40543945 42.11352539 50.32543945 42.11352539 C50.32543945 32.21352539 50.32543945 22.31352539 50.32543945 12.11352539 C43.13517644 12.21041546 35.94549593 12.31312044 28.75561523 12.4309082 C26.30937801 12.46920673 23.86308429 12.50405803 21.41674805 12.53540039 C17.90173139 12.58103144 14.38710391 12.63902996 10.87231445 12.69946289 C9.77739685 12.7110141 8.68247925 12.72256531 7.55438232 12.73446655 C6.5336261 12.75433624 5.51286987 12.77420593 4.46118164 12.79467773 C3.11549103 12.81466324 3.11549103 12.81466324 1.74261475 12.83505249 C-0.86956963 13.13599159 -2.49289693 13.65086342 -4.67456055 15.11352539 C-8.15944856 25.56818942 -6.307425 37.09945911 -6.67456055 48.11352539 C16.09543945 48.11352539 38.86543945 48.11352539 62.32543945 48.11352539 C62.32543945 52.07352539 62.32543945 56.03352539 62.32543945 60.11352539 C59.4941748 60.14325439 59.4941748 60.14325439 56.60571289 60.17358398 C50.36707654 60.24137446 44.12860134 60.3181513 37.89014816 60.40105247 C34.10803643 60.45098323 30.32595219 60.49731342 26.54370117 60.53540039 C22.89312898 60.57229411 19.24278861 60.61866489 15.59241486 60.6715889 C14.20021891 60.69011119 12.8079733 60.70522717 11.41570282 60.71686935 C9.46461739 60.73376807 7.51366058 60.7639371 5.56274414 60.79467773 C4.45243835 60.8080014 3.34213257 60.82132507 2.19818115 60.83505249 C-0.6107443 61.10733928 -2.28646624 61.65994803 -4.67456055 63.11352539 C-4.67456055 65.09352539 -4.67456055 67.07352539 -4.67456055 69.11352539 C-1.21612365 71.21859535 1.54996077 71.38421965 5.56274414 71.43237305 C7.45425201 71.46217758 7.45425201 71.46217758 9.38397217 71.49258423 C10.75508448 71.50445969 12.12619865 71.5161226 13.49731445 71.52758789 C14.90408458 71.54630408 16.31084354 71.56587784 17.71759033 71.58627319 C21.41316129 71.637553 25.10876862 71.67720073 28.80450439 71.7144165 C32.57850107 71.75448232 36.35234695 71.80556287 40.1262207 71.85571289 C47.52586458 71.95242306 54.92556707 72.03582484 62.32543945 72.11352539 C62.32543945 76.07352539 62.32543945 80.03352539 62.32543945 84.11352539 C53.44992242 84.20639493 44.57457384 84.27737589 35.69867611 84.32077408 C31.57677427 84.34160799 27.45520599 84.369848 23.33349609 84.4152832 C19.3523438 84.45889204 15.37151142 84.48269404 11.39013863 84.49303436 C9.87473073 84.5003989 8.35933944 84.51478019 6.84406853 84.53644562 C-7.90869918 84.73890414 -7.90869918 84.73890414 -13.67456055 80.11352539 C-17.83483074 75.62481281 -18.79444237 72.39980914 -18.8515625 66.3762207 C-18.86439774 65.19779602 -18.87723297 64.01937134 -18.89045715 62.80523682 C-18.89784409 61.5302533 -18.90523102 60.25526978 -18.9128418 58.94165039 C-18.92091354 57.63073425 -18.92898529 56.31981812 -18.93730164 54.96917725 C-18.95231676 52.19177378 -18.96215979 49.41439578 -18.96972656 46.63696289 C-18.98077314 43.09172229 -19.0151569 39.54711244 -19.05489826 36.00209427 C-19.08744704 32.60697237 -19.09185038 29.21191621 -19.1003418 25.81665039 C-19.11784988 24.54976379 -19.13535797 23.2828772 -19.15339661 21.9776001 C-19.13658397 15.13297733 -18.88513585 10.62355391 -14.67456055 5.11352539 C-9.85207528 0.6439049 -6.45993967 -0.01176674 0 0 Z " fill="#0E518C" transform="translate(24.674560546875,5.886474609375)"/>
<path d="M0 0 C14.85 0 29.7 0 45 0 C45 3.96 45 7.92 45 12 C30.15 12 15.3 12 0 12 C0 8.04 0 4.08 0 0 Z " fill="#ED0049" transform="translate(24,27)"/>
</svg>
